<svg width="21" height="24" viewBox="0 0 21 24" fill="none" xmlns="http://www.w3.org/2000/svg">
<path d="M11.522 -0.00975623C11.3438 -0.00384464 11.1687 0.0372515 11.0065 0.111165C10.8443 0.185078 10.6984 0.290348 10.5771 0.420909L5.26158 6.11199L1.47212 10.1689C0.920218 10.7565 0.513159 11.4649 0.283362 12.2377C0.234116 12.4037 0.193097 12.572 0.160455 12.7421C0.0131278 13.5116 0.0339236 14.3038 0.221417 15.0645C0.304756 15.4077 0.419629 15.7425 0.564573 16.0645C0.865164 16.7336 1.28913 17.34 1.81429 17.8521L6.01967 21.9748L6.05802 22.0122C8.26838 24.141 11.812 24.1095 13.986 21.9394L16.3419 19.5875C16.8728 19.0565 16.8728 18.1972 16.3448 17.6652C16.2192 17.5389 16.0698 17.4386 15.9053 17.3701C15.7409 17.3015 15.5645 17.2661 15.3863 17.2658C15.2081 17.2656 15.0316 17.3004 14.8669 17.3685C14.7022 17.4365 14.5526 17.5363 14.4265 17.6623L12.0706 20.0142C11.5213 20.5564 10.7826 20.8634 10.0109 20.8704C9.23917 20.8774 8.49503 20.5837 7.93604 20.0516L7.91637 20.0329L3.71197 15.9101C3.07089 15.2808 2.75625 14.4657 2.77985 13.685C2.78453 13.5119 2.80626 13.3396 2.84474 13.1708C2.94357 12.7424 3.15349 12.3477 3.45338 12.0263L7.24186 7.96838C8.28214 6.85336 10.3922 6.71964 11.5977 7.69503L15.0401 10.4786C15.6231 10.9506 16.4766 10.8591 16.9476 10.2751C17.1733 9.99452 17.2787 9.6359 17.2405 9.27781C17.2024 8.91971 17.0238 8.59133 16.744 8.36463L13.3026 5.58103C12.516 4.94487 11.5662 4.55353 10.5751 4.39916L12.5564 2.2773C12.739 2.08092 12.8595 1.83496 12.9028 1.57031C12.9461 1.30565 12.9103 1.0341 12.7998 0.789758C12.6893 0.545412 12.509 0.339167 12.2817 0.196922C12.0543 0.0546764 11.79 -0.0172261 11.522 -0.00975623V-0.00975623ZM8.70396 12.5907C8.5256 12.5907 8.349 12.6258 8.18424 12.6941C8.01949 12.7624 7.86982 12.8626 7.7438 12.9888C7.61777 13.115 7.51786 13.2648 7.44979 13.4297C7.38171 13.5945 7.34681 13.7712 7.34707 13.9495C7.34681 14.1279 7.38171 14.3045 7.44979 14.4694C7.51786 14.6342 7.61777 14.784 7.7438 14.9103C7.86982 15.0365 8.01949 15.1366 8.18424 15.2049C8.349 15.2732 8.5256 15.3084 8.70396 15.3084H18.7066C18.885 15.3084 19.0616 15.2732 19.2263 15.2049C19.3911 15.1366 19.5408 15.0365 19.6668 14.9103C19.7928 14.784 19.8927 14.6342 19.9608 14.4694C20.0289 14.3045 20.0638 14.1279 20.0635 13.9495C20.0638 13.7712 20.0289 13.5945 19.9608 13.4297C19.8927 13.2648 19.7928 13.115 19.6668 12.9888C19.5408 12.8626 19.3911 12.7624 19.2263 12.6941C19.0616 12.6258 18.885 12.5907 18.7066 12.5907H8.70396Z" fill="white"/>
</svg>
