<svg width="21" height="22" viewBox="0 0 21 22" fill="none" xmlns="http://www.w3.org/2000/svg">
<path d="M13.5382 20.2072C14.2141 20.2072 14.2141 21.2351 13.5382 21.2351H1.15384C0.870041 21.2351 0.640015 21.0048 0.640015 20.721V5.24423C0.640015 5.10233 0.697521 4.97363 0.790378 4.88077L4.83078 0.840615C4.93111 0.74029 5.06255 0.690002 5.194 0.690002H16.8171C17.1009 0.690002 17.3311 0.920278 17.3311 1.20408V10.2C17.3311 10.8762 16.3032 10.8762 16.3032 10.2V1.7179H5.40685L1.66792 5.45708V20.2072H13.5382V20.2072ZM4.79493 15.6768C4.1188 15.6768 4.1188 14.6489 4.79493 14.6489H12.4294C13.1055 14.6489 13.1055 15.6768 12.4294 15.6768H4.79493ZM4.79493 8.83877C4.1188 8.83877 4.1188 7.81087 4.79493 7.81087H12.4294C13.1055 7.81087 13.1055 8.83877 12.4294 8.83877H4.79493ZM4.79493 11.1181C4.1188 11.1181 4.1188 10.0902 4.79493 10.0902H12.4294C13.1055 10.0902 13.1055 11.1181 12.4294 11.1181H4.79493ZM4.79493 13.3975C4.1188 13.3975 4.1188 12.3696 4.79493 12.3696H12.4294C13.1055 12.3696 13.1055 13.3975 12.4294 13.3975H4.79493ZM4.79493 6.55942C4.1188 6.55942 4.1188 5.53152 4.79493 5.53152H12.4294C13.1055 5.53152 13.1055 6.55942 12.4294 6.55942H4.79493ZM17.1569 12.4906C18.3976 12.4906 19.4034 13.4963 19.4034 14.7371C19.4034 15.1877 19.2707 15.6071 19.0424 15.9586C19.9777 16.5793 20.5727 17.6037 20.6389 18.7269C20.6785 19.4006 19.6543 19.4606 19.615 18.7872C19.5625 17.8987 19.0521 17.1073 18.2674 16.6901C17.9398 16.8768 17.5609 16.9833 17.1569 16.9833C16.7197 16.9833 16.3117 16.8586 15.9667 16.6425C15.1342 17.0438 14.5825 17.8633 14.528 18.7872C14.4884 19.4606 13.4645 19.4006 13.5041 18.7269C13.5735 17.5524 14.2198 16.4894 15.2238 15.882C15.0249 15.5466 14.9106 15.1553 14.9106 14.7371C14.9106 13.4966 15.9164 12.4906 17.1569 12.4906V12.4906ZM17.1569 13.5185C16.484 13.5185 15.9385 14.0642 15.9385 14.7371C15.9385 15.41 16.484 15.9554 17.1569 15.9554C17.8298 15.9554 18.3755 15.41 18.3755 14.7371C18.3755 14.0642 17.83 13.5185 17.1569 13.5185V13.5185Z" fill="white"/>
</svg>
