<svg width="20" height="20" viewBox="0 0 20 20" fill="none" xmlns="http://www.w3.org/2000/svg">
<path d="M19.5251 15.4562L14.9511 10.8822C14.0488 9.97991 12.7013 9.80414 11.6154 10.3393L7.45155 6.17544V3.74979L2.45183 0L-0.0480348 2.49986L3.70176 7.49958H6.1274L10.2912 11.6634C9.76001 12.7493 9.93188 14.0969 10.8342 14.9992L15.4081 19.5731C15.9784 20.1434 16.9002 20.1434 17.4666 19.5731L19.5251 17.5146C20.0915 16.9444 20.0915 16.0225 19.5251 15.4562V15.4562ZM12.9083 8.78857C14.0137 8.78857 15.0527 9.21824 15.8339 9.99944L16.5917 10.7572C17.2088 10.4877 17.7947 10.1127 18.3025 9.60493C19.7516 8.1558 20.2438 6.11685 19.7829 4.26539C19.697 3.91384 19.2556 3.79276 18.9978 4.05056L16.0917 6.95664L13.4395 6.51526L12.9981 3.86307L15.9042 0.956978C16.162 0.69918 16.037 0.257798 15.6816 0.167959C13.8301 -0.289046 11.7911 0.203114 10.3459 1.64835C9.2327 2.76156 8.70929 4.23023 8.73663 5.695L11.9435 8.90185C12.2599 8.82763 12.588 8.78857 12.9083 8.78857ZM8.84991 11.9915L6.63519 9.7768L0.682393 15.7335C-0.294115 16.71 -0.294115 18.2919 0.682393 19.2685C1.6589 20.245 3.24084 20.245 4.21735 19.2685L9.04521 14.4406C8.74835 13.6633 8.65851 12.8157 8.84991 11.9915V11.9915ZM2.45183 18.4365C1.93623 18.4365 1.51438 18.0146 1.51438 17.499C1.51438 16.9795 1.93232 16.5616 2.45183 16.5616C2.97133 16.5616 3.38927 16.9795 3.38927 17.499C3.38927 18.0146 2.97133 18.4365 2.45183 18.4365Z" fill="white"/>
</svg>
