<svg width="22" height="24" viewBox="0 0 22 24" fill="none" xmlns="http://www.w3.org/2000/svg">
<path d="M14.725 0L13.005 1.277L19.395 9.865L21.111 8.588L14.725 0ZM10.785 3.418L9.416 5.062L17.641 11.912L19.01 10.268L10.785 3.418V3.418ZM7.635 7.883L6.73 9.823L16.432 14.34L17.336 12.4L7.635 7.883V7.883ZM5.785 12.743L5.345 14.836L15.818 17.037L16.258 14.945L5.785 12.742V12.743ZM0.889999 15.47V24H20.08V15.47H17.947V21.867H3.021V15.471H0.889999V15.47ZM5.155 17.603V19.733H15.815V17.603H5.154H5.155Z" fill="white"/>
</svg>
